<?xml version="1.0" encoding="UTF-8" standalone="no"?>
<svg id="svg-calendar-date" xmlns="http://www.w3.org/2000/svg" viewBox="0 0 100 100" class="w-24 h-24 sm:w-32 sm:h-32 drop-shadow-md">
                        <!-- 底部 3D 投影/厚度层 (浅绿) -->
                        <rect x="16" y="28" width="68" height="64" rx="14" fill="#E8F5E9"/>
                        
                        <!-- 日历主体 (纯白) -->
                        <rect x="16" y="20" width="68" height="64" rx="14" fill="#FFFFFF"/>
                        
                        <!-- 日历顶部彩色装订头 (海蓝色) -->
                        <path d="M 16 34 Q 16 20 30 20 L 70 20 Q 84 20 84 34 L 84 42 L 16 42 Z" fill="#90CAF9"/>

                        <!-- 装订环孔阴影 -->
                        <circle cx="32" cy="28" r="4" fill="#0277BD" opacity="0.15"/>
                        <circle cx="68" cy="28" r="4" fill="#0277BD" opacity="0.15"/>

                        <!-- 3D 粗装订环 (深粉色) -->
                        <rect x="28" y="10" width="8" height="24" rx="4" fill="#F06292"/>
                        <rect x="64" y="10" width="8" height="24" rx="4" fill="#F06292"/>
                        <!-- 装订环高光 -->
                        <rect x="30" y="12" width="2" height="10" rx="1" fill="#FFFFFF" opacity="0.6"/>
                        <rect x="66" y="12" width="2" height="10" rx="1" fill="#FFFFFF" opacity="0.6"/>

                        <!-- 居中大号日期 -->
                        <text x="50" y="72" font-family="'Nunito', 'Arial Rounded MT Bold', sans-serif" font-weight="900" font-size="34" fill="#4FC3F7" text-anchor="middle">24</text>
                        
                        <!-- 氛围点缀 -->
                        <circle cx="72" cy="52" r="4" fill="#FFF9C4"/>
                        <circle cx="28" cy="74" r="3" fill="#FFE0E9"/>
                    </svg>