<svg xmlns="http://www.w3.org/2000/svg" viewBox="0 0 24 24" fill="none"><path d="M14 4C8.48 4 4 8.48 4 14s4.48 10 10 10c1.06 0 2-.94 2-2 0-.53-.21-1.04-.59-1.41-.36-.36-.59-.86-.59-1.41 0-1.1.9-2 2-2h1.5c2.76 0 5-2.24 5-5 0-4.42-4.48-8-9.5-8z" fill="#F8FAFC"/><path d="M12 2C6.48 2 2 6.48 2 12s4.48 10 10 10c1.06 0 2-.94 2-2 0-.53-.21-1.04-.59-1.41-.36-.36-.59-.86-.59-1.41 0-1.1.9-2 2-2h1.5c2.76 0 5-2.24 5-5 0-4.42-4.48-8-9.5-8z" fill="#FFB3BA" stroke="#F8FAFC" stroke-width="2.5" stroke-linecap="square"/><rect x="8" y="8" width="2" height="2" fill="#F8FAFC"/><rect x="15" y="8" width="2" height="2" fill="#F8FAFC"/><rect x="12" y="13" width="2" height="2" fill="#F8FAFC"/></svg>